<svg xmlns="http://www.w3.org/2000/svg" width="13" height="11.143" viewBox="0 0 13 11.143">
  <path id="icon_window" d="M10.214-4.411v2.321A2.012,2.012,0,0,1,9.6-.613,2.012,2.012,0,0,1,8.125,0H2.089A2.012,2.012,0,0,1,.613-.613,2.012,2.012,0,0,1,0-2.089V-8.125A2.012,2.012,0,0,1,.613-9.6a2.012,2.012,0,0,1,1.476-.613H7.2a.226.226,0,0,1,.167.065.226.226,0,0,1,.065.167v.464a.226.226,0,0,1-.065.167.226.226,0,0,1-.167.065H2.089a1.118,1.118,0,0,0-.82.341,1.118,1.118,0,0,0-.341.82v6.036a1.118,1.118,0,0,0,.341.82,1.118,1.118,0,0,0,.82.341H8.125a1.118,1.118,0,0,0,.82-.341,1.118,1.118,0,0,0,.341-.82V-4.411a.226.226,0,0,1,.065-.167.226.226,0,0,1,.167-.065h.464a.226.226,0,0,1,.167.065A.226.226,0,0,1,10.214-4.411ZM13-10.679v3.714a.446.446,0,0,1-.138.326.446.446,0,0,1-.326.138.446.446,0,0,1-.326-.138L10.932-7.915,6.2-3.185a.229.229,0,0,1-.167.073.229.229,0,0,1-.167-.073l-.827-.827a.229.229,0,0,1-.073-.167.229.229,0,0,1,.073-.167l4.73-4.73L8.495-10.352a.446.446,0,0,1-.138-.326.446.446,0,0,1,.138-.326.446.446,0,0,1,.326-.138h3.714a.446.446,0,0,1,.326.138A.446.446,0,0,1,13-10.679Z" transform="translate(0 11.143)" fill="#333"/>
</svg>
