<svg xmlns="http://www.w3.org/2000/svg" width="16" height="13.714" viewBox="0 0 16 13.714">
  <path id="icon_window_sp" d="M12.571-5.429v2.857a2.477,2.477,0,0,1-.754,1.817A2.477,2.477,0,0,1,10,0H2.571A2.477,2.477,0,0,1,.754-.754,2.477,2.477,0,0,1,0-2.571V-10a2.477,2.477,0,0,1,.754-1.817,2.477,2.477,0,0,1,1.817-.754H8.857a.278.278,0,0,1,.205.08.278.278,0,0,1,.08.205v.571a.278.278,0,0,1-.08.205.278.278,0,0,1-.205.08H2.571a1.376,1.376,0,0,0-1.009.42A1.376,1.376,0,0,0,1.143-10v7.429a1.376,1.376,0,0,0,.42,1.009,1.376,1.376,0,0,0,1.009.42H10a1.376,1.376,0,0,0,1.009-.42,1.376,1.376,0,0,0,.42-1.009V-5.429a.278.278,0,0,1,.08-.205.278.278,0,0,1,.205-.08h.571a.278.278,0,0,1,.205.08A.278.278,0,0,1,12.571-5.429ZM16-13.143v4.571a.549.549,0,0,1-.17.4.549.549,0,0,1-.4.17.549.549,0,0,1-.4-.17L13.455-9.741,7.634-3.92a.282.282,0,0,1-.205.089.282.282,0,0,1-.205-.089L6.205-4.937a.282.282,0,0,1-.089-.205.282.282,0,0,1,.089-.205l5.821-5.821-1.571-1.571a.549.549,0,0,1-.17-.4.549.549,0,0,1,.17-.4.549.549,0,0,1,.4-.17h4.571a.549.549,0,0,1,.4.17A.549.549,0,0,1,16-13.143Z" transform="translate(0 13.714)" fill="#fff"/>
</svg>
