<svg xmlns="http://www.w3.org/2000/svg" width="33.943" height="36" viewBox="0 0 33.943 36">
  <g id="icon-subnav-03" transform="translate(-0.289)">
    <path id="Fill_1" data-name="Fill 1" d="M21.5,36H15.84a3.375,3.375,0,1,1,0-6.75H21.5V31.5h1.131a3.388,3.388,0,0,0,3.394-3.375V22.472a11.47,11.47,0,0,1-3.911,3.292,11.326,11.326,0,0,1-11.89-.992,11.377,11.377,0,0,1-4.043-5.647H3.394A3.388,3.388,0,0,1,0,15.75v-4.5A3.388,3.388,0,0,1,3.394,7.875H6.179a11.38,11.38,0,0,1,4.043-5.647,11.339,11.339,0,0,1,13.5,0,11.379,11.379,0,0,1,4.043,5.647h2.785a3.388,3.388,0,0,1,3.394,3.375v4.5a3.388,3.388,0,0,1-3.394,3.375H28.286v9a5.648,5.648,0,0,1-5.657,5.625H21.5V36ZM15.84,31.5a1.125,1.125,0,1,0,0,2.25h3.393V31.5ZM7.92,12.172V15.75a9.051,9.051,0,0,0,18.1,0V11.927A13.63,13.63,0,0,1,19.8,8.4a13.576,13.576,0,0,1-2.155,1.75L16.4,8.275a11.366,11.366,0,0,0,2.524-2.259L19.8,4.958l.874,1.058a11.294,11.294,0,0,0,5.178,3.51,9.051,9.051,0,0,0-17.82.384,11.539,11.539,0,0,0,2.2.214c.111,0,.222,0,.372-.006l.082,2.248c-.146.006-.309.009-.5.009A13.256,13.256,0,0,1,7.92,12.172Zm20.308-2.047a11.2,11.2,0,0,1,.059,1.125v4.5a10.933,10.933,0,0,1-.059,1.125h2.321A1.129,1.129,0,0,0,31.68,15.75v-4.5a1.129,1.129,0,0,0-1.131-1.125H28.228Zm-24.834,0A1.129,1.129,0,0,0,2.263,11.25v4.5a1.129,1.129,0,0,0,1.131,1.125h2.32a11.26,11.26,0,0,1-.057-1.125v-4.5a11.14,11.14,0,0,1,.058-1.125Z" transform="translate(0.289)" fill="#fff"/>
    <path id="Fill_3" data-name="Fill 3" d="M0,.567l.532,2a16.829,16.829,0,0,0,2.554-.681L2.125,0A13.971,13.971,0,0,1,0,.567" transform="translate(13.146 9.257)" fill="#fff"/>
    <path id="Fill_5" data-name="Fill 5" d="M0,2.057H2.057V0H0Z" transform="translate(12.118 13.371)" fill="#fff"/>
    <path id="Fill_7" data-name="Fill 7" d="M0,2.057H2.057V0H0Z" transform="translate(20.861 13.371)" fill="#fff"/>
  </g>
</svg>
