<svg xmlns="http://www.w3.org/2000/svg" width="18.382" height="13" viewBox="0 0 18.382 13">
  <path id="icon-dl" d="M14.907,13c-.107,0-.218-.005-.329-.015H4.071a4.071,4.071,0,0,1-1.49-7.86,3.948,3.948,0,0,1,7.49-2.5A3.591,3.591,0,0,1,15.351,5.8c0,.089,0,.181-.012.283A3.474,3.474,0,0,1,14.907,13ZM7.09,7.846a.179.179,0,0,0-.156.315l1.917,2.527a.284.284,0,0,0,.477,0l1.918-2.527a.179.179,0,0,0-.157-.315h-.734a.4.4,0,0,1-.4-.394V5.368a.4.4,0,0,0-.394-.4H8.614a.4.4,0,0,0-.4.4V7.452a.4.4,0,0,1-.394.394Z" fill="#1e88e5"/>
</svg>
