<svg id="icon-subnav-01" xmlns="http://www.w3.org/2000/svg" width="40" height="32.857" viewBox="0 0 40 32.857">
  <path id="Fill_1" data-name="Fill 1" d="M35,12.5c0-.042,0-.083,0-.124a7.5,7.5,0,0,0-9.264-7.217A11.272,11.272,0,0,0,5.031,10.319,7.419,7.419,0,0,0,7.5,24.762H9.091V22.285H7.5a4.948,4.948,0,0,1-1-9.8l1-.2L7.5,11.143a8.76,8.76,0,0,1,16.541-3.93l.522,1.011L25.624,7.8A4.995,4.995,0,0,1,32.5,12.381a4.891,4.891,0,0,1-.1,1l-.319,1.532,1.578-.043c.07,0,.138-.009.093-.012a3.714,3.714,0,1,1,0,7.427H30.682v2.477H33.75A6.186,6.186,0,0,0,35,12.5" fill="#fff"/>
  <path id="Fill_4" data-name="Fill 4" d="M0,6.667H2.286V2.222H3.429V6.667H5.714V0H0Z" transform="translate(10 26.19)" fill="#fff"/>
  <path id="Fill_6" data-name="Fill 6" d="M0,11.429H2.286V2.286H3.429v9.143H5.714V0H0Z" transform="translate(17.143 21.429)" fill="#fff"/>
  <path id="Fill_8" data-name="Fill 8" d="M0,15.714H2.286V2.245H3.429V15.714H5.714V0H0Z" transform="translate(24.286 17.143)" fill="#fff"/>
</svg>
