<svg xmlns="http://www.w3.org/2000/svg" width="169.119" height="30.685" viewBox="0 0 169.119 30.685">
  <g id="logo_sp" transform="translate(0 0)">
    <path id="株式会社MMM" d="M11.592-.768A10.506,10.506,0,0,1,9.048-4.14h2.244V-5.28H8.748v-1.8H10.9V-8.256H8.748v-1.872h-1.2v1.872H6.684a8.008,8.008,0,0,0,.252-1.08l-1.056-.3a9.956,9.956,0,0,1-1.224,3.36l.96.72a9.039,9.039,0,0,0,.7-1.524H7.548v1.8H4.92v.54A11.9,11.9,0,0,1,3.636-6.912h1.14v-1.2H3.552v-2.016H2.34v2.016H.912v1.2H2.2A14.024,14.024,0,0,1,.432-3.444l.624,1.356A11.7,11.7,0,0,0,2.34-5.256V1H3.552V-5.616a10.836,10.836,0,0,0,.84,2.2L4.92-4.476v.336H7.26A9.838,9.838,0,0,1,4.416-.6L5.2.516A10.631,10.631,0,0,0,7.548-3V1h1.2V-3.12A10.048,10.048,0,0,0,10.836.372ZM23.632-2.7c-.276,1.524-.528,2.016-.744,2.016-.372,0-1.548-1.752-1.932-5.94H24.04V-7.848l.264-.216a18.08,18.08,0,0,0-1.776-1.992l-.912.7a14.861,14.861,0,0,1,1.272,1.5h-2.04c-.048-.7-.084-1.512-.1-2.256h-1.26c.012.732.06,1.56.1,2.256H13.72v1.236h5.964c.564,5.868,2.34,7.6,3.216,7.6.6,0,1.176-.744,1.692-2.556Zm-4.02,1.116c-.648.168-1.548.336-2.508.5v-2.8h2.064v-1.2H13.912v1.2H15.88V-.888c-.816.132-1.632.216-2.3.288l.24,1.224a50.04,50.04,0,0,0,5.8-.972ZM37.256.072C36.6-.756,35.24-2.28,34.5-3.036h2.556v-1.2h-10.1v1.2H30.2A10.755,10.755,0,0,1,28.592-.792c-.564.024-1.092.024-1.6.036L27.284.576A66.751,66.751,0,0,0,35.312-.18c.348.408.66.816.912,1.176Zm.468-6.984a11.913,11.913,0,0,1-5.016-3.132H31.316A11.55,11.55,0,0,1,26.348-6.9L27.1-5.628A12.793,12.793,0,0,0,32.024-8.9a13.615,13.615,0,0,0,2.9,2.316H29.192V-5.4h5.784V-6.564a13.782,13.782,0,0,0,1.932.96Zm-3.24,3.876-1.008.66c.288.312.636.72,1.008,1.164-1.356.2-2.856.3-4.284.372a11.618,11.618,0,0,0,1.536-2.2ZM50.544.684V-.54H48V-5.22h2.244V-6.444H48v-3.684H46.728v3.684H44.484V-5.22h2.244V-.54H44V.684ZM42.72,1V-4.116a10.284,10.284,0,0,0,1.548,1.368l.54-1.2a10.833,10.833,0,0,1-1.824-1.2,10.04,10.04,0,0,0,1.44-2.124V-8.328H42.756v-1.8H41.544v1.8H40.008v1.2h3.108A9.67,9.67,0,0,1,39.372-3.84l.54,1.2a10.829,10.829,0,0,0,1.6-1.116V1ZM65.426.49l-1.68-11.41H62.164l-2.31,6.426c-.322.924-.7,2.072-.91,2.856-.21-.756-.574-1.918-.9-2.814l-2.31-6.468h-1.61L52.462.49h1.792l.686-6.034c.14-1.134.2-3.6.2-3.6s.56,2.394.9,3.332l2.2,6.3h1.428L61.828-5.7a29.429,29.429,0,0,0,.924-3.374v.28a28.608,28.608,0,0,0,.2,3.234l.7,6.048Zm14.93,0-1.68-11.41H77.094l-2.31,6.426c-.322.924-.7,2.072-.91,2.856-.21-.756-.574-1.918-.9-2.814l-2.31-6.468h-1.61L67.392.49h1.792l.686-6.034c.14-1.134.2-3.6.2-3.6s.56,2.394.9,3.332l2.2,6.3h1.428L76.758-5.7a29.43,29.43,0,0,0,.924-3.374v.28a28.608,28.608,0,0,0,.2,3.234l.7,6.048Zm14.93,0-1.68-11.41H92.024l-2.31,6.426c-.322.924-.7,2.072-.91,2.856-.21-.756-.574-1.918-.9-2.814L85.6-10.92h-1.61L82.322.49h1.792L84.8-5.544c.14-1.134.2-3.6.2-3.6s.56,2.394.9,3.332l2.2,6.3h1.428L91.688-5.7a29.43,29.43,0,0,0,.924-3.374v.28a28.608,28.608,0,0,0,.2,3.234l.7,6.048Z" transform="translate(73.833 10.92)" fill="#333"/>
    <path id="_エムエムエム_" data-name="（エムエムエム）" d="M9.7.89A6.673,6.673,0,0,1,7.84-3.8,6.656,6.656,0,0,1,9.7-8.49H8.68A6.95,6.95,0,0,0,6.97-3.8,6.916,6.916,0,0,0,8.68.89ZM19.869-.37v-.84l-3.65.01V-6.18l3.2.01v-.8h-7.4v.8l3.22-.01V-1.2L11.6-1.21v.84ZM30.918-.3a21.5,21.5,0,0,0-2.71-4.24l-.82.43a16.049,16.049,0,0,1,1.74,2.52c-1.06.15-3.02.4-4.81.58a59.263,59.263,0,0,0,2.21-6.32L25.5-7.59a46.31,46.31,0,0,1-2.13,6.66c-.42.03-.81.06-1.17.08l.15.95c1.71-.19,4.72-.5,7.17-.92.19.36.35.71.49,1.04ZM41.408-.37v-.84l-3.65.01V-6.18l3.2.01v-.8h-7.4v.8l3.22-.01V-1.2l-3.64-.01v.84ZM52.457-.3a21.5,21.5,0,0,0-2.71-4.24l-.82.43a16.049,16.049,0,0,1,1.74,2.52c-1.06.15-3.02.4-4.81.58a59.263,59.263,0,0,0,2.21-6.32l-1.03-.26a46.309,46.309,0,0,1-2.13,6.66c-.42.03-.81.06-1.17.08l.15.95c1.71-.19,4.72-.5,7.17-.92.19.36.35.71.49,1.04ZM62.946-.37v-.84L59.3-1.2V-6.18l3.2.01v-.8H55.1v.8l3.22-.01V-1.2l-3.64-.01v.84ZM74-.3a21.5,21.5,0,0,0-2.71-4.24l-.82.43a16.048,16.048,0,0,1,1.74,2.52c-1.06.15-3.02.4-4.81.58a59.261,59.261,0,0,0,2.21-6.32l-1.03-.26a46.31,46.31,0,0,1-2.13,6.66c-.42.03-.81.06-1.17.08l.15.95c1.71-.19,4.72-.5,7.17-.92.19.36.35.71.49,1.04ZM76.7.89a6.916,6.916,0,0,0,1.71-4.69A6.95,6.95,0,0,0,76.7-8.49h-1.02a6.656,6.656,0,0,1,1.86,4.69A6.673,6.673,0,0,1,75.685.89Z" transform="translate(78.833 27.92)" fill="#333"/>
    <g id="Group_7" data-name="Group 7" transform="translate(0 0.92)">
      <path id="Fill_1" data-name="Fill 1" d="M0,0,8.566,29.765h8.352L8.352,0Z" transform="translate(8.904)" fill="#0e5faf"/>
      <path id="Fill_2" data-name="Fill 2" d="M8.566,0,0,29.765H8.352L16.918,0Z" fill="#0e5faf"/>
      <path id="Fill_3" data-name="Fill 3" d="M8.566,0,0,29.765H8.352L16.918,0Z" transform="translate(17.808)" fill="#0e5faf"/>
      <path id="Fill_4" data-name="Fill 4" d="M0,0,8.566,29.765h8.352L8.352,0Z" transform="translate(26.712)" fill="#0e5faf"/>
      <path id="Fill_5" data-name="Fill 5" d="M0,0,8.566,29.765h8.352L8.352,0Z" transform="translate(37.397)" fill="#0e5faf"/>
      <path id="Fill_6" data-name="Fill 6" d="M0,0,8.566,29.765h8.352L8.352,0Z" transform="translate(48.082)" fill="#0e5faf"/>
    </g>
  </g>
</svg>
