<svg xmlns="http://www.w3.org/2000/svg" width="283.089" height="39" viewBox="0 0 283.089 39">
  <g id="logo_horizontal" transform="translate(0)">
    <path id="株式会社MMM" d="M12.558-.832A11.381,11.381,0,0,1,9.8-4.485h2.431V-5.72H9.477V-7.67H11.8V-8.944H9.477v-2.028h-1.3v2.028H7.241a8.676,8.676,0,0,0,.273-1.17L6.37-10.439A10.786,10.786,0,0,1,5.044-6.8l1.04.78A9.792,9.792,0,0,0,6.838-7.67H8.177v1.95H5.33v.585A12.9,12.9,0,0,1,3.939-7.488H5.174v-1.3H3.848v-2.184H2.535v2.184H.988v1.3H2.379A15.193,15.193,0,0,1,.468-3.731l.676,1.469A12.679,12.679,0,0,0,2.535-5.694V1.079H3.848V-6.084A11.739,11.739,0,0,0,4.758-3.7L5.33-4.849v.364H7.865A10.658,10.658,0,0,1,4.784-.65L5.629.559A11.517,11.517,0,0,0,8.177-3.25V1.079h1.3V-3.38A10.885,10.885,0,0,0,11.739.4Zm12.96-2.093c-.3,1.651-.572,2.184-.806,2.184-.4,0-1.677-1.9-2.093-6.435H25.96V-8.5l.286-.234a19.586,19.586,0,0,0-1.924-2.158l-.988.754a16.1,16.1,0,0,1,1.378,1.625H22.5c-.052-.754-.091-1.638-.1-2.444H21.033c.013.793.065,1.69.1,2.444H14.78v1.339h6.461c.611,6.357,2.535,8.229,3.484,8.229.65,0,1.274-.806,1.833-2.769ZM21.163-1.716c-.7.182-1.677.364-2.717.546V-4.2h2.236V-5.5H14.988v1.3H17.12V-.962c-.884.143-1.768.234-2.5.312l.26,1.326A54.21,54.21,0,0,0,21.163-.377ZM40.194.078c-.715-.9-2.184-2.548-2.99-3.367h2.769v-1.3H29.027v1.3H32.55A11.651,11.651,0,0,1,30.808-.858c-.611.026-1.183.026-1.729.039L29.391.624a72.313,72.313,0,0,0,8.7-.819c.377.442.715.884.988,1.274ZM40.7-7.488a12.906,12.906,0,0,1-5.434-3.393H33.759a12.513,12.513,0,0,1-5.382,3.406L29.2-6.1a13.86,13.86,0,0,0,5.33-3.549,14.75,14.75,0,0,0,3.146,2.509H31.458V-5.85h6.266V-7.111a14.93,14.93,0,0,0,2.093,1.04Zm-3.51,4.2L36.1-2.574c.312.338.689.78,1.092,1.261-1.469.221-3.094.325-4.641.4a12.586,12.586,0,0,0,1.664-2.379ZM54.506.741V-.585H51.75v-5.07h2.431V-6.981H51.75v-3.991H50.372v3.991H47.941v1.326h2.431v5.07H47.421V.741Zm-8.476.338V-4.459a11.141,11.141,0,0,0,1.677,1.482l.585-1.3a11.735,11.735,0,0,1-1.976-1.3,10.876,10.876,0,0,0,1.56-2.3V-9.022H46.069v-1.95H44.756v1.95H43.092v1.3h3.367A10.475,10.475,0,0,1,42.4-4.16l.585,1.3a11.731,11.731,0,0,0,1.729-1.209V1.079ZM69.426.49l-1.68-11.41H66.164l-2.31,6.426c-.322.924-.7,2.072-.91,2.856-.21-.756-.574-1.918-.9-2.814l-2.31-6.468h-1.61L56.462.49h1.792l.686-6.034c.14-1.134.2-3.6.2-3.6s.56,2.394.9,3.332l2.2,6.3h1.428L65.828-5.7a29.43,29.43,0,0,0,.924-3.374v.28a28.608,28.608,0,0,0,.2,3.234l.7,6.048Zm14.93,0-1.68-11.41H81.094l-2.31,6.426c-.322.924-.7,2.072-.91,2.856-.21-.756-.574-1.918-.9-2.814l-2.31-6.468h-1.61L71.392.49h1.792l.686-6.034c.14-1.134.2-3.6.2-3.6s.56,2.394.9,3.332l2.2,6.3h1.428L80.758-5.7a29.43,29.43,0,0,0,.924-3.374v.28a28.608,28.608,0,0,0,.2,3.234l.7,6.048Zm14.93,0-1.68-11.41H96.024l-2.31,6.426c-.322.924-.7,2.072-.91,2.856-.21-.756-.574-1.918-.9-2.814L89.6-10.92h-1.61L86.322.49h1.792L88.8-5.544c.14-1.134.2-3.6.2-3.6s.56,2.394.9,3.332l2.2,6.3h1.428L95.688-5.7a29.43,29.43,0,0,0,.924-3.374v.28a28.608,28.608,0,0,0,.2,3.234l.7,6.048Z" transform="translate(96.833 22.909)" fill="#333"/>
    <path id="_エムエムエム_" data-name="（エムエムエム）" d="M10.67.979A7.34,7.34,0,0,1,8.624-4.18,7.322,7.322,0,0,1,10.67-9.339H9.548A7.645,7.645,0,0,0,7.667-4.18,7.607,7.607,0,0,0,9.548.979ZM21.856-.407v-.924l-4.015.011V-6.8l3.52.011v-.88h-8.14v.88L16.763-6.8V-1.32l-4-.011v.924ZM34.01-.33a23.649,23.649,0,0,0-2.981-4.664l-.9.473a17.653,17.653,0,0,1,1.914,2.772c-1.166.165-3.322.44-5.291.638a65.189,65.189,0,0,0,2.431-6.952l-1.133-.286a50.941,50.941,0,0,1-2.343,7.326c-.462.033-.891.066-1.287.088L24.583.11C26.464-.1,29.775-.44,32.47-.9c.209.4.385.781.539,1.144ZM45.548-.407v-.924l-4.015.011V-6.8l3.52.011v-.88h-8.14v.88L40.455-6.8V-1.32l-4-.011v.924ZM57.7-.33a23.649,23.649,0,0,0-2.981-4.664l-.9.473a17.653,17.653,0,0,1,1.914,2.772c-1.166.165-3.322.44-5.291.638a65.19,65.19,0,0,0,2.431-6.952l-1.133-.286A50.941,50.941,0,0,1,49.4-1.023c-.462.033-.891.066-1.287.088L48.276.11C50.157-.1,53.468-.44,56.163-.9c.209.4.385.781.539,1.144ZM69.241-.407v-.924l-4.015.011V-6.8l3.52.011v-.88h-8.14v.88L64.148-6.8V-1.32l-4-.011v.924ZM81.395-.33a23.649,23.649,0,0,0-2.981-4.664l-.9.473a17.653,17.653,0,0,1,1.914,2.772c-1.166.165-3.322.44-5.291.638a65.189,65.189,0,0,0,2.431-6.952l-1.133-.286A50.942,50.942,0,0,1,73.09-1.023c-.462.033-.891.066-1.287.088L71.968.11C73.849-.1,77.16-.44,79.855-.9c.209.4.385.781.539,1.144ZM84.375.979A7.607,7.607,0,0,0,86.256-4.18a7.645,7.645,0,0,0-1.881-5.159H83.253A7.321,7.321,0,0,1,85.3-4.18,7.34,7.34,0,0,1,83.253.979Z" transform="translate(196.833 22.818)" fill="#333"/>
    <g id="Group_7" data-name="Group 7">
      <path id="Fill_1" data-name="Fill 1" d="M0,0,11.224,39H22.167L10.943,0Z" transform="translate(11.667)" fill="#0e5faf"/>
      <path id="Fill_2" data-name="Fill 2" d="M11.223,0,0,39H10.943L22.167,0Z" fill="#0e5faf"/>
      <path id="Fill_3" data-name="Fill 3" d="M11.223,0,0,39H10.943L22.167,0Z" transform="translate(23.333)" fill="#0e5faf"/>
      <path id="Fill_4" data-name="Fill 4" d="M0,0,11.224,39H22.167L10.943,0Z" transform="translate(35)" fill="#0e5faf"/>
      <path id="Fill_5" data-name="Fill 5" d="M0,0,11.224,39H22.167L10.943,0Z" transform="translate(49)" fill="#0e5faf"/>
      <path id="Fill_6" data-name="Fill 6" d="M0,0,11.224,39H22.167L10.943,0Z" transform="translate(63)" fill="#0e5faf"/>
    </g>
  </g>
</svg>
