<svg xmlns="http://www.w3.org/2000/svg" width="97.894" height="61.001" viewBox="0 0 97.894 61.001">
  <g id="logo_vertical" transform="translate(-0.056 1)">
    <path id="株式会社MMM" d="M-36.841-.676A11.294,11.294,0,0,1-39.727-4.55h2.587V-5.577h-2.886V-7.813h2.444V-8.866h-2.444v-2.106h-1.066v2.106H-42.3a10.982,10.982,0,0,0,.351-1.352l-.975-.26A10.719,10.719,0,0,1-44.342-6.8l.845.676a9.3,9.3,0,0,0,.845-1.69h1.56v2.236h-3v.754a16.693,16.693,0,0,1-1.534-2.808h1.365V-8.684H-45.72v-2.288h-1.066v2.288h-1.625v1.053h1.482a17.984,17.984,0,0,1-2.015,4.186l.6,1.131a14.353,14.353,0,0,0,1.56-3.8V1.079h1.066V-6.435a14.848,14.848,0,0,0,1.079,2.7l.546-1.027v.208h2.717A10.631,10.631,0,0,1-44.6-.494l.689.988a11.416,11.416,0,0,0,2.821-4.03V1.079h1.066V-3.692a11.783,11.783,0,0,0,2.483,4Zm13.09-2.145c-.3,1.95-.585,2.457-.845,2.457-.416,0-1.859-1.82-2.405-6.942h3.627V-8.4h-.442l.442-.338A16.992,16.992,0,0,0-25.3-10.842l-.806.637A14.336,14.336,0,0,1-24.518-8.4h-2.587c-.065-.793-.117-1.781-.143-2.574h-1.118c.026.806.091,1.807.156,2.574h-6.409v1.092h6.513c.676,6.4,2.587,8.372,3.549,8.372.637,0,1.2-.845,1.69-2.977Zm-4.563,1.209c-.7.169-1.7.377-2.769.572v-3.3h2.3V-5.408H-34.4v1.066h2.223V-.858c-.936.143-1.859.273-2.587.338l.195,1.079A53.46,53.46,0,0,0-28.314-.52ZM-9.27.273c-.754-.962-2.236-2.665-3.016-3.5l-.9.611,1.248,1.469a48.282,48.282,0,0,1-5.278.468,12.957,12.957,0,0,0,2-2.678h5.759V-4.433h-10.92v1.079h3.822a13.176,13.176,0,0,1-2.106,2.73c-.533.013-1.053.026-1.573.026L-20,.572a63.467,63.467,0,0,0,8.8-.819c.39.481.754.949,1.04,1.339Zm.507-7.592a13.46,13.46,0,0,1-5.551-3.588h-1.2a12.4,12.4,0,0,1-5.5,3.6l.663,1.1A13.683,13.683,0,0,0-14.9-9.867,16.133,16.133,0,0,0-9.465-6.188Zm-2.769,1.378V-7.007h-6.539v1.066ZM5.12.676V-.4H2.247V-5.759H4.782V-6.838H2.247v-4.134h-1.1v4.134H-1.419v1.079H1.142V-.4H-1.9V.676Zm-8.554.4V-4.654A11.505,11.505,0,0,0-1.666-3.12l.52-1.027A12.914,12.914,0,0,1-3.161-5.6,10.877,10.877,0,0,0-1.536-7.956V-8.9H-3.408v-2.067H-4.487V-8.9H-6.294v1.079h3.588A11.037,11.037,0,0,1-6.983-3.991L-6.5-2.925a10.827,10.827,0,0,0,1.989-1.4V1.079ZM19.734.406,18.1-10.808H16.724L14.19-3.794c-.308.868-.672,1.974-.812,2.492-.14-.5-.5-1.624-.812-2.464l-2.52-7.042h-1.4L7.008.406H8.492L9.276-6.2C9.4-7.364,9.5-9.31,9.5-9.31s.532,2.03.868,2.982L12.762.406h1.232l2.394-6.734a26.376,26.376,0,0,0,.854-2.94,30,30,0,0,0,.21,3.01L18.264.406Zm14.608,0L32.7-10.808H31.332L28.8-3.794c-.308.868-.672,1.974-.812,2.492-.14-.5-.5-1.624-.812-2.464l-2.52-7.042h-1.4L21.616.406H23.1L23.884-6.2c.126-1.162.224-3.108.224-3.108s.532,2.03.868,2.982L27.37.406H28.6L31-6.328a26.376,26.376,0,0,0,.854-2.94,30,30,0,0,0,.21,3.01L32.872.406Zm14.608,0L47.312-10.808H45.94L43.406-3.794c-.308.868-.672,1.974-.812,2.492-.14-.5-.5-1.624-.812-2.464l-2.52-7.042h-1.4L36.224.406h1.484L38.492-6.2c.126-1.162.224-3.108.224-3.108s.532,2.03.868,2.982L41.978.406H43.21L45.6-6.328a26.376,26.376,0,0,0,.854-2.94,30,30,0,0,0,.21,3.01L47.48.406Z" transform="translate(49 58.909)" fill="#333"/>
    <path id="Fill_1" data-name="Fill 1" d="M0,0,11.224,39H22.167L10.943,0Z" transform="translate(18.5 -1)" fill="#0e5faf"/>
    <path id="Fill_2" data-name="Fill 2" d="M11.223,0,0,39H10.943L22.167,0Z" transform="translate(6.833 -1)" fill="#0e5faf"/>
    <path id="Fill_3" data-name="Fill 3" d="M11.223,0,0,39H10.943L22.167,0Z" transform="translate(30.167 -1)" fill="#0e5faf"/>
    <path id="Fill_4" data-name="Fill 4" d="M0,0,11.224,39H22.167L10.943,0Z" transform="translate(41.833 -1)" fill="#0e5faf"/>
    <path id="Fill_5" data-name="Fill 5" d="M0,0,11.224,39H22.167L10.943,0Z" transform="translate(55.833 -1)" fill="#0e5faf"/>
    <path id="Fill_6" data-name="Fill 6" d="M0,0,11.224,39H22.167L10.943,0Z" transform="translate(69.833 -1)" fill="#0e5faf"/>
  </g>
</svg>
