<?xml version="1.0" encoding="utf-8"?>
<!-- Generator: Adobe Illustrator 24.0.1, SVG Export Plug-In . SVG Version: 6.00 Build 0)  -->
<svg version="1.1" id="レイヤー_1" xmlns="http://www.w3.org/2000/svg" xmlns:xlink="http://www.w3.org/1999/xlink" x="0px"
	 y="0px" viewBox="0 0 320 65" style="enable-background:new 0 0 320 65;" xml:space="preserve">
<style type="text/css">
	.st0{display:none;}
	.st1{fill:#0E5FAF;}
	.st2{fill:#34495E;}
</style>
<g id="レイヤー_1_1_" class="st0">
	
		<image style="display:inline;overflow:visible;enable-background:new    ;" width="300" height="64" xlink:href="13A6DAED2CA9BA.png"  transform="matrix(1 0 0 1 0 -0.4189)">
	</image>
</g>
<g id="レイヤー_2_1_">
	<g>
		<path class="st1" d="M117.1,3.7h7.8l7.7,23.2l8-23.2h7.6v31.1h-6V14.1l-7.1,20.7h-5L123,14.1v20.7h-5.8L117.1,3.7L117.1,3.7z"/>
		<path class="st1" d="M154.5,3.7h7.8l7.7,23.2l8-23.2h7.6v31.1h-6V14.1l-7.1,20.7h-5l-7.1-20.7v20.7h-5.8L154.5,3.7L154.5,3.7z"/>
		<path class="st1" d="M191.9,3.7h7.8l7.7,23.2l8-23.2h7.6v31.1h-6V14.1l-7,20.7h-5l-7.1-20.7v20.7h-5.8V3.7H191.9z"/>
	</g>
	<g>
		<path class="st2" d="M232,10V5.5h22.6V2.1h2.8V8H255v2.5c-0.1,3.9-0.7,7.2-1.8,10c-1.2,2.8-2.5,5.1-4.1,6.8
			c-1.6,1.8-3.3,3.2-5,4.2s-3.5,1.7-5.1,2.3c-1.6,0.5-3.1,0.9-4.4,1.1v-4.4c1.7-0.3,3.4-0.8,5.1-1.5c1.7-0.7,3.3-1.8,5-3.2
			c1.6-1.4,3-3.3,4.1-5.7s1.8-5.7,2-10L232,10L232,10z M259,8V2.1h2.8V8H259z"/>
		<path class="st2" d="M288.8,34h-23.7V6.1h23.7V34z M284.2,10.5h-14.4v19h14.4V10.5z"/>
		<path class="st2" d="M307.3,3.7c-0.3,1.4-0.6,2.8-1,4.2H320v5.2c-0.3,3.4-1,6.4-2.2,9s-2.6,4.7-4.3,6.4c-1.7,1.7-3.4,3-5.2,4
			c-1.8,1-3.4,1.8-5,2.4c-1.5,0.6-2.9,1.1-4.1,1.4v-4.6c1.7-0.5,3.3-1.2,4.9-1.9s3.3-1.9,5-3.4s3.2-3.3,4.4-5.4
			c1.2-2.1,1.9-5.1,2.1-8.8h-11.1c-1.7,2.8-3.3,4.9-4.8,6.3s-2.6,2.4-3.7,3.1V16c0.9-0.8,1.8-1.9,2.8-3.1s1.7-2.7,2.4-4.2
			s1.2-3.2,1.5-4.9h4.6V3.7z M312.7,5.9V0h2.8v5.9H312.7z M317.1,5.9V0h2.8v5.9H317.1z"/>
	</g>
	<g>
		<path class="st2" d="M117.1,61.1l1.2-10.2h1.8l2,8.5l0,0l2-8.5h1.8l1.2,10.2h-1.5l-0.8-8.1l0,0l-1.9,8.1h-1.7l-1.8-8.1l0,0
			l-0.8,8.1H117.1z"/>
		<path class="st2" d="M130,61.1l1.2-10.2h1.8l2,8.5l0,0l2-8.5h1.8l1.2,10.2h-1.5l-0.8-8.1l0,0l-1.9,8.1h-1.7l-1.9-8.1l0,0l-0.8,8.1
			H130z"/>
		<path class="st2" d="M142.8,61.1l1.2-10.2h1.8l2,8.5l0,0l2-8.5h1.8l1.2,10.2h-1.5l-0.8-8.1l0,0l-1.9,8.1H147l-1.9-8.1l0,0
			l-0.8,8.1H142.8z"/>
		<path class="st2" d="M166.1,60c0.7,0,1.5-0.1,2.3-0.4V61c-0.8,0.2-1.6,0.3-2.4,0.3c-1.4,0-2.6-0.5-3.4-1.4
			c-0.9-0.9-1.3-2.2-1.3-3.9c0-1.6,0.4-2.9,1.2-3.9c0.8-0.9,2-1.4,3.5-1.4c0.8,0,1.6,0.1,2.4,0.3v1.3c-0.5-0.1-0.9-0.2-1.1-0.3
			c-0.3,0-0.7-0.1-1.1-0.1c-1,0-1.8,0.3-2.4,1c-0.6,0.7-0.9,1.7-0.9,3s0.3,2.3,0.9,2.9C164.3,59.6,165.1,60,166.1,60z"/>
		<path class="st2" d="M172.1,54.7c0.6-0.7,1.5-1,2.5-1c1.1,0,1.9,0.3,2.5,1s0.9,1.6,0.9,2.8s-0.3,2.1-0.9,2.8c-0.6,0.7-1.4,1-2.5,1
			s-1.9-0.3-2.5-1s-0.9-1.6-0.9-2.8S171.5,55.3,172.1,54.7z M172.7,57.5c0,1.8,0.6,2.7,1.9,2.7c1.3,0,1.9-0.9,1.9-2.7
			s-0.6-2.7-1.9-2.7S172.7,55.7,172.7,57.5z"/>
		<path class="st2" d="M181.2,61.1V59h1.8v2.1H181.2z"/>
		<path class="st2" d="M187.1,59h2l-1.5,3.7h-1.4L187.1,59z"/>
		<path class="st2" d="M200,50.9v8.9h4.7v1.3h-6.3V50.9H200z"/>
		<path class="st2" d="M209.8,54.1h2.5v1.1h-2.5v3.4c0,0.6,0.1,1,0.2,1.2s0.4,0.3,0.9,0.3c0.4,0,0.8-0.1,1.2-0.2v1.2
			c-0.5,0.1-0.9,0.1-1.5,0.1c-0.9,0-1.5-0.2-1.8-0.5s-0.5-1-0.5-2v-3.5h-1.5v-1.1h1.5v-2.7h1.5L209.8,54.1L209.8,54.1z"/>
		<path class="st2" d="M215.2,57.5c0-1.2,0.3-2.1,0.8-2.8s1.2-1,2.1-1c0.8,0,1.5,0.3,2.1,0.9l0,0v-4h1.5v10.5h-1.4v-0.9l0,0
			c-0.4,0.4-0.7,0.7-1,0.8s-0.7,0.2-1.2,0.2c-0.8,0-1.5-0.3-2.1-1S215.2,58.6,215.2,57.5z M220.3,58.5v-2.1c0-0.4-0.2-0.8-0.5-1.1
			s-0.8-0.5-1.3-0.5c-1.2,0-1.8,0.9-1.8,2.7c0,0.9,0.2,1.6,0.5,2s0.8,0.7,1.3,0.7s0.9-0.2,1.3-0.5S220.3,58.9,220.3,58.5z"/>
		<path class="st2" d="M225.4,61.1V59h1.8v2.1H225.4z"/>
		<path class="st2" d="M239.7,52c-0.5,0-0.9,0.1-1.2,0.4s-0.4,0.6-0.4,1.1c0,0.4,0.1,0.7,0.4,1s0.6,0.5,1.1,0.7
			c1.2,0.4,2.1,0.9,2.6,1.4s0.7,1.1,0.7,1.9c0,0.9-0.3,1.7-0.9,2.1s-1.4,0.7-2.6,0.7c-1,0-1.8-0.2-2.7-0.6v-1.5
			c0.8,0.6,1.6,0.8,2.5,0.8c1.4,0,2-0.5,2-1.6c0-0.4-0.1-0.8-0.4-1s-0.7-0.5-1.3-0.8c-1.1-0.4-1.8-0.8-2.3-1.3s-0.7-1.1-0.7-1.8
			c0-0.8,0.3-1.5,0.8-1.9s1.2-0.7,2.2-0.7c1.1,0,2,0.2,2.9,0.6v1.4C241.5,52.2,240.6,52,239.7,52z"/>
		<path class="st2" d="M248.1,54.1h2.5v1.1h-2.5v3.4c0,0.6,0.1,1,0.2,1.2s0.4,0.3,0.9,0.3c0.4,0,0.8-0.1,1.2-0.2v1.2
			c-0.5,0.1-0.9,0.1-1.5,0.1c-0.9,0-1.5-0.2-1.8-0.5s-0.5-1-0.5-2v-3.5h-1.5v-1.1h1.5v-2.7h1.5L248.1,54.1L248.1,54.1z"/>
		<path class="st2" d="M256.4,53.7c1.2,0,2,0.2,2.4,0.6s0.7,1.2,0.7,2.3v4.5h-1.4V60l0,0c-0.5,0.8-1.3,1.2-2.4,1.2
			c-0.6,0-1.2-0.2-1.6-0.6s-0.6-1-0.6-1.6c0-0.8,0.3-1.5,0.9-1.9s1.6-0.7,2.9-0.7h0.8v-0.3c0-0.5-0.1-0.8-0.3-1
			c-0.2-0.2-0.7-0.3-1.3-0.3c-0.7,0-1.6,0.2-2.5,0.5v-1.2C254.7,53.8,255.6,53.7,256.4,53.7z M258,57.4h-0.8c-0.8,0-1.3,0.1-1.7,0.4
			s-0.6,0.6-0.6,1c0,0.3,0.1,0.6,0.3,0.9s0.4,0.3,0.7,0.3c0.6,0,1.1-0.2,1.5-0.6s0.6-0.9,0.6-1.6V57.4z"/>
		<path class="st2" d="M262.5,55.2v-1.1h1.5v-0.6c0-1,0.2-1.7,0.6-2.1s1.1-0.7,2-0.7c0.5,0,0.9,0.1,1.3,0.2V52
			c-0.4-0.1-0.7-0.2-1.1-0.2c-0.5,0-0.8,0.1-1,0.3c-0.2,0.2-0.3,0.7-0.3,1.3V54h2.2v1.1h-2.2V61H264v-5.9h-1.5V55.2z"/>
		<path class="st2" d="M270.9,55.2v-1.1h1.5v-0.6c0-1,0.2-1.7,0.6-2.1s1.1-0.7,2-0.7c0.5,0,0.9,0.1,1.3,0.2V52
			c-0.4-0.1-0.7-0.2-1.1-0.2c-0.5,0-0.8,0.1-1,0.3s-0.3,0.7-0.3,1.3V54h2.2v1.1H274V61h-1.5v-5.9h-1.6V55.2z"/>
		<path class="st2" d="M292.5,58.1c0,1-0.3,1.8-1,2.3s-1.8,0.7-3.3,0.7h-2.5V50.9h2.4c1.4,0,2.5,0.2,3.1,0.6s1,1,1,1.9
			c0,0.5-0.2,1-0.6,1.4s-0.9,0.7-1.5,0.8l0,0c0.8,0.1,1.4,0.4,1.9,0.8S292.5,57.4,292.5,58.1z M287.2,55.1h0.6c1,0,1.8-0.1,2.2-0.4
			s0.7-0.6,0.7-1.1s-0.2-0.9-0.5-1.1s-1-0.3-1.8-0.3h-1.1v2.9H287.2z M291,58c0-0.6-0.2-1-0.7-1.3s-1.3-0.4-2.5-0.4h-0.6v3.6h1.3
			c0.9,0,1.5-0.2,1.9-0.5S291,58.6,291,58z"/>
		<path class="st2" d="M295.9,61.1V50.6h1.5v10.5H295.9z"/>
		<path class="st2" d="M301.7,54.7c0.6-0.7,1.5-1,2.5-1s1.9,0.3,2.5,1s0.9,1.6,0.9,2.8s-0.3,2.1-0.9,2.8s-1.4,1-2.5,1
			s-1.9-0.3-2.5-1s-0.9-1.6-0.9-2.8S301.1,55.3,301.7,54.7z M302.3,57.5c0,1.8,0.6,2.7,1.9,2.7s1.9-0.9,1.9-2.7s-0.6-2.7-1.9-2.7
			S302.3,55.7,302.3,57.5z"/>
		<path class="st2" d="M313,63.2c0.7,0,1.3-0.1,1.7-0.4s0.6-0.6,0.6-0.9c0-0.8-0.7-1.2-2.1-1.2c-1,0-1.8-0.1-2.2-0.4
			s-0.6-0.6-0.6-1.1c0-0.4,0.2-0.8,0.6-1.2c-0.5-0.5-0.8-1-0.8-1.8s0.3-1.4,0.8-1.9s1.2-0.7,2-0.7c1,0,1.7,0.3,2.3,0.9l0,0v-0.8h1.3
			v2.5c0,0.8-0.3,1.4-0.8,1.9s-1.3,0.6-2.4,0.6c-0.6,0-1.1-0.1-1.5-0.2c-0.2,0.2-0.3,0.4-0.3,0.5c0,0.2,0.1,0.3,0.4,0.4
			s0.7,0.1,1.4,0.1c1.2,0,2,0.2,2.6,0.5s0.8,0.9,0.8,1.5c0,0.8-0.3,1.5-1,1.9c-0.6,0.5-1.6,0.7-2.8,0.7c-1,0-1.9-0.2-2.8-0.6v-1.3
			C311.1,63,312,63.2,313,63.2z M311.7,56.4c0,0.5,0.2,0.9,0.5,1.2s0.7,0.4,1.3,0.4c0.5,0,0.9-0.1,1.3-0.4s0.5-0.7,0.5-1.2
			s-0.2-0.9-0.5-1.2s-0.8-0.4-1.3-0.4s-0.9,0.2-1.2,0.5S311.7,55.9,311.7,56.4z"/>
	</g>
</g>
<g>
	<polygon class="st1" points="41.7,9.8 34.6,34 27.5,9.8 13.9,9.8 0,57.1 13.6,57.1 20.7,32.9 27.8,57.1 41.4,57.1 48.5,32.9 
		55.6,57.1 69.2,57.1 55.3,9.8 	"/>
	<polygon class="st1" points="58.8,9.8 72.7,57.1 86.2,57.1 72.3,9.8 	"/>
	<polygon class="st1" points="89,9.8 75.5,9.8 89.4,57.1 102.9,57.1 	"/>
</g>
</svg>
